<svg width="2408" height="853" viewBox="0 0 2408 853" fill="none" xmlns="http://www.w3.org/2000/svg">
<path fill-rule="evenodd" clip-rule="evenodd" d="M425 275C507.843 275 575 342.157 575 425C575 507.843 507.843 575 425 575C342.157 575 275 507.843 275 425C275 342.157 342.157 275 425 275ZM425 375C397.386 375 375 397.386 375 425C375 452.614 397.386 475 425 475C452.614 475 475 452.614 475 425C475 397.386 452.614 375 425 375Z" fill="#F05742"/>
<path d="M490 475V375H813V475H490Z" fill="#F05742"/>
<path d="M175 425C175 563.071 286.929 675 425 675C563.071 675 675 563.071 675 425C675 407.877 673.277 391.156 669.998 375H821.903C823.946 391.38 825 408.067 825 425C825 645.914 645.914 825 425 825C204.086 825 25 645.914 25 425C25 298.681 83.5543 186.039 175 112.733V425Z" fill="#F05742"/>
<path d="M425 25C592.869 25 736.583 128.409 795.922 275H625.018C579.407 214.278 506.791 175 425 175C368.72 175 316.783 193.598 275 224.982V54.0771C321.322 35.3265 371.955 25 425 25Z" fill="#F05742"/>
<path fill-rule="evenodd" clip-rule="evenodd" d="M1453.29 849.994H1436.09C1415.7 849.994 1397.02 847.658 1380.03 842.987C1363.04 838.317 1351.57 834.07 1345.63 830.249L1364.74 772.925C1371.96 775.897 1382.26 779.4 1395.63 783.434C1409.01 787.468 1424.19 789.485 1441.18 789.485H1448.19C1467.72 789.485 1485.03 783.646 1500.11 771.969C1515.18 760.292 1526.76 744.687 1534.82 725.154H1502.97L1378.12 439.808H1467.3L1540.56 615.602L1557.12 661.461H1563.49L1580.05 615.602L1654.59 439.808H1741.22L1731.03 478.661C1722.96 495.221 1713.72 514.223 1703.32 535.666C1692.91 557.11 1682.19 579.296 1671.15 602.226C1660.11 625.156 1649.38 647.236 1638.98 668.467C1628.57 689.698 1619.34 708.594 1611.27 725.154C1598.95 750.632 1585.47 772.712 1570.82 791.396C1556.17 810.079 1539.39 824.516 1520.49 834.707C1501.59 844.898 1479.19 849.994 1453.29 849.994ZM2279.51 725.154H2151.46C2130.23 725.154 2113.88 722.394 2102.41 716.874C2090.95 711.354 2082.77 704.348 2077.89 695.855C2073 687.363 2070.03 678.446 2068.97 669.104C2067.91 659.763 2067.38 651.27 2067.38 643.627V521.335C2067.38 514.966 2067.91 507.217 2068.97 498.087C2070.03 488.958 2073 479.935 2077.89 471.018C2082.77 462.1 2091.05 454.67 2102.73 448.725C2114.41 442.78 2130.65 439.808 2151.46 439.808H2288.42C2316.45 439.808 2338.43 442.462 2354.36 447.769C2370.28 453.077 2381.54 461.676 2388.12 473.565C2394.7 485.455 2397.99 501.378 2397.99 521.335V615.602H2286.51C2248.29 615.602 2217.18 614.752 2193.19 613.054C2169.19 611.355 2153.16 610.294 2145.09 609.869V644.901C2144.67 661.886 2154.86 670.378 2175.67 670.378H2208.16C2231.09 670.378 2253.49 670.06 2275.37 669.423C2297.24 668.786 2317.3 667.937 2335.56 666.875C2353.83 665.813 2368.48 664.858 2379.52 664.009L2405 705.409C2405 718.573 2363.17 725.154 2279.51 725.154ZM1217.59 725.154H915V350H1192.11C1232.03 350 1261.12 357.962 1279.38 373.885C1297.64 389.808 1306.77 409.023 1306.77 431.528V450.636C1306.77 468.045 1303.05 482.376 1295.62 493.629C1288.19 504.881 1280.23 512.843 1271.73 517.514C1290.42 523.459 1305.28 533.756 1316.33 548.405C1327.37 563.055 1332.89 582.269 1332.89 606.048V617.513C1332.89 630.251 1331.4 642.99 1328.43 655.729C1325.46 668.467 1319.83 680.038 1311.55 690.442C1303.27 700.845 1291.59 709.231 1276.51 715.6C1261.44 721.97 1241.79 725.154 1217.59 725.154ZM1916.4 725.154H1896.65C1864.38 725.154 1842.3 718.36 1830.4 704.773C1818.51 691.185 1812.57 670.803 1812.57 643.627V494.584H1760.33V439.808H1787.09C1795.16 439.808 1800.99 438.534 1804.6 435.986C1808.21 433.438 1810.87 428.343 1812.57 420.7L1825.31 352.548H1890.28V439.808H2022.79V494.584H1890.28V644.264C1890.28 654.879 1892.83 661.886 1897.93 665.283C1903.02 668.68 1910.67 670.378 1920.86 670.378H2010.68L2017.05 718.785C2008.13 720.059 1994.54 721.439 1976.28 722.925C1958.02 724.411 1938.06 725.154 1916.4 725.154ZM999.087 562.736V664.009H1199.75C1215.89 664.009 1228.1 659.975 1236.38 651.907C1244.66 643.839 1248.8 632.799 1248.8 618.786V607.322C1248.8 594.158 1243.92 583.437 1234.15 575.156C1224.38 566.876 1208.24 562.736 1185.74 562.736H999.087ZM999.087 411.146V500.317H1178.73C1193.59 500.741 1204.63 497.026 1211.85 489.17C1219.07 481.315 1222.68 471.442 1222.68 459.553V453.183C1222.68 443.417 1219.29 433.969 1212.49 424.84C1205.7 415.71 1192.95 411.146 1174.27 411.146H999.087ZM2145.09 520.062V560.825H2320.28V520.062C2320.28 511.569 2319.32 505.624 2317.41 502.227C2315.5 498.83 2309.87 496.707 2300.53 495.858C2291.19 495.009 2275.26 494.584 2252.75 494.584H2175.67C2155.29 494.584 2145.09 503.077 2145.09 520.062Z" fill="white" stroke="white" stroke-width="4.53543" stroke-linecap="round"/>
<path fill-rule="evenodd" clip-rule="evenodd" d="M1061.49 325H1043.13C1016.21 325 994.302 324.755 977.413 324.266C960.525 323.776 947.553 323.042 938.497 322.062C929.441 321.083 923.261 319.859 919.956 318.39C916.652 316.922 915 315.33 915 313.617L926.014 286.077C929.93 287.301 936.845 288.831 946.757 290.667C956.67 292.503 969.336 293.421 984.756 293.421H1047.54C1056.59 293.421 1063.02 292.075 1066.81 289.382C1070.61 286.689 1072.5 281.916 1072.5 275.061V253.029C1061.98 254.988 1049.56 256.701 1035.24 258.17C1020.92 259.639 1004.46 260.373 985.858 260.373H967.501C955.263 260.373 945.84 258.782 939.231 255.6C932.623 252.417 927.911 248.378 925.096 243.482C922.282 238.586 920.568 233.446 919.956 228.06C919.344 222.674 919.039 217.778 919.039 213.372V142.87C919.039 139.198 919.344 134.731 919.956 129.468C920.568 124.204 922.282 119.002 925.096 113.862C927.911 108.721 932.684 104.437 939.415 101.01C946.145 97.5826 955.507 95.869 967.501 95.869H986.225C1011.92 95.869 1031.93 96.3586 1046.25 97.3378C1060.57 98.317 1071.03 99.4186 1077.64 100.643L1087.19 95.869H1117.29V277.999C1117.29 282.405 1116.62 287.301 1115.27 292.687C1113.93 298.072 1111.3 303.213 1107.38 308.109C1103.46 313.005 1097.83 317.044 1090.49 320.226C1083.15 323.409 1073.48 325 1061.49 325ZM1425.69 260.373H1414.31C1395.71 260.373 1382.98 256.457 1376.12 248.623C1369.27 240.789 1365.84 229.039 1365.84 213.372V127.448H1335.74V95.869H1351.16C1355.81 95.869 1359.17 95.1346 1361.26 93.6659C1363.34 92.1971 1364.87 89.2595 1365.84 84.8531L1373.19 45.563H1410.64V95.869H1487V127.448H1410.64V213.739C1410.64 219.859 1412.1 223.898 1415.04 225.857C1417.98 227.815 1422.38 228.794 1428.26 228.794H1480.02L1483.7 256.701C1478.56 257.436 1470.72 258.231 1460.2 259.088C1449.67 259.945 1438.17 260.373 1425.69 260.373ZM1209.81 260.373H1165.02V56.9461L1161.35 27.5704H1209.81V260.373ZM1302.33 260.373H1257.54V95.869H1302.33V260.373ZM981.452 228.794H1061.12C1066.75 228.794 1070.05 228.305 1071.03 227.326C1072.01 226.346 1072.5 223.164 1072.5 217.778V130.018C1064.18 129.529 1053.66 128.978 1040.93 128.366C1028.2 127.754 1014.62 127.448 1000.18 127.448H981.452C969.703 127.448 963.829 132.344 963.829 142.136V214.106C963.585 223.898 969.459 228.794 981.452 228.794ZM1279.93 72.7356C1270.88 72.7356 1264.27 70.8996 1260.11 67.2277C1255.95 63.5557 1253.87 57.4357 1253.87 48.8678C1253.87 40.0551 1255.89 33.8739 1259.93 30.3244C1263.96 26.7748 1270.63 25 1279.93 25C1289.24 25 1295.97 26.7748 1300.13 30.3244C1304.29 33.8739 1306.37 40.0551 1306.37 48.8678C1306.37 57.1909 1304.29 63.2497 1300.13 67.0441C1295.97 70.8384 1289.24 72.7356 1279.93 72.7356Z" fill="white" stroke="white" stroke-width="4.53543" stroke-linecap="round"/>
</svg>
